<?xml version="1.0" encoding="utf-8"?>
<!-- Generator: Adobe Illustrator 21.1.0, SVG Export Plug-In . SVG Version: 6.00 Build 0)  -->
<svg version="1.1" id="Layer_1" xmlns="http://www.w3.org/2000/svg" xmlns:xlink="http://www.w3.org/1999/xlink" x="0px" y="0px"
	 viewBox="0 0 100 125" style="enable-background:new 0 0 100 125;" xml:space="preserve">
<g>
	<path d="M76.9,37.7c-3.4,0-6.6-4.8-6.6-4.8c-2.9-5.4-0.9-7.9,0-8.6c-5.4-5.2-13.3-8.5-22.1-8.5c-8.6,0-16.4,3.2-21.8,8.2
		c0.1,0,0.2,0,0.3,0.1c0,0,3.8,2.2,0.3,8.9c0,0-3.2,4.8-6.6,4.8c-0.4,0-0.8-0.1-1.2-0.2c0,0-0.1-0.1-0.4-0.3c-0.2,1.3-0.4,2.7-0.4,4
		c0,14,13.3,25.4,29.7,25.4c16.4,0,29.7-11.4,29.7-25.4c0-1.2-0.1-2.4-0.3-3.6C77.3,37.6,77.1,37.7,76.9,37.7z M32.8,55.8
		c-0.1,0-0.2-0.1-0.3-0.1l0,0l0,0c-0.5-0.3-0.9-0.8-0.9-1.5c0-1,0.8-1.7,1.7-1.7c0.5,0,0.9,0.2,1.2,0.5c0,0,0.1,0,0.1,0l7.1,5.9
		L32.8,55.8z M63.4,55.7L63.4,55.7L63.4,55.7c-0.2,0.1-0.2,0.1-0.3,0.1l-8.9,3.1l7.1-5.9c0,0,0.1,0,0.1,0c0.3-0.3,0.7-0.5,1.2-0.5
		c1,0,1.7,0.8,1.7,1.7C64.4,54.9,64,55.4,63.4,55.7z"/>
	<path d="M88.6,72.6c0.5-2.3,0.7-4.5,0.7-6.6c0-12.4-7.2-19.8-10.4-22.6c-0.2,1.5-0.4,3-0.9,4.5c3.1,3.1,7.5,9.2,7.5,18.1
		c0,1.7-0.2,3.6-0.5,5.6L79.4,67l1,20.1c9.1-5.5,15.4-15.6,15.4-15.6L88.6,72.6z"/>
	<path d="M31.6,91.1c0.2-1.9,0.6-3.8,1-5.6c-1.7-0.4-3.2-0.5-4.3-0.5C28.1,88.4,29.9,90.2,31.6,91.1z"/>
	<path d="M33,94.7L33,94.7c0,0,0-0.1,0-0.2C33,94.6,33,94.6,33,94.7z"/>
	<path d="M26.8,88.3c-2.6-1.3-5.5-3-8.1-5.3c-4.2-3.8-7.5-9.1-7.6-16.7c0,0,0-0.1,0-0.1c0-1.3,0.3-10.5,7.6-17.2c0,0,0-0.1,0-0.1
		c-0.2-0.6-0.4-1.3-0.6-1.9c0-0.2-0.1-0.3-0.1-0.5c-0.1-0.5-0.2-1.1-0.3-1.6C7.5,52.7,7.2,64.4,7.2,66.1c0,0.1,0,0.2,0,0.2
		c0.2,11.7,7.2,19.1,13.9,23.2c3.2,2,6.3,3.3,8.8,4.2C28.4,92.7,27,91,26.8,88.3z"/>
	<path d="M64.8,91.4c1.8-0.9,3.5-2.7,3.4-6.2c-1.1,0-2.6,0.2-4.3,0.5C64.2,87.6,64.5,89.5,64.8,91.4z"/>
	<path d="M39.6,68.5c-0.5-0.1-0.9-0.2-1.4-0.4c-3,2.6-7.5,7.5-9.9,15.4c1.3,0,2.9,0.2,4.8,0.6C34.9,77.4,37.6,72,39.6,68.5z"/>
	<path d="M58.2,68.2c-0.5,0.1-0.9,0.2-1.3,0.4c2,3.5,4.7,8.9,6.5,15.6c1.9-0.4,3.5-0.5,4.8-0.6C65.7,75.7,61.2,70.7,58.2,68.2z"/>
	<path d="M71.1,32.3c0.8,1.1,3.4,4.3,5.7,4.3c0.2,0,0.5,0,0.7-0.1c1.1-0.9,9.2-8.2,6.8-21.8c-4.7,7.1-9.8,9.4-13.3,10.1
		C70.5,25.3,68.5,27.4,71.1,32.3z"/>
	<path d="M19.7,36.6c0.2,0.1,0.5,0.1,0.7,0.1c2.3,0,4.9-3.1,5.7-4.3c2.7-5.1,0.7-7.1,0.2-7.5c-3.5-0.7-8.7-3-13.3-10.1
		C10.4,28.5,18.6,35.7,19.7,36.6z"/>
	<path d="M48.2,67.7c-1.9,0-3.8-0.2-5.7-0.5c-2.8,4.3-8.1,14.2-9.5,27.2c0.1-1.3,0.3-2.5,0.5-3.7l0,0.1c-0.2,1.3-0.4,2.9-0.5,3.9h0
		c-0.4,3-0.4,8,0,11h4.4c0.6-1,2.6-8,5.9-10h4.2h1.1h4.2c3.3,2,5.3,9,5.9,10h4.8c2-18-5.9-33.4-9.5-39C52,67.1,50.1,67.7,48.2,67.7z
		"/>
</g>
</svg>
