<?xml version="1.0" encoding="utf-8"?>
<!-- Generator: Adobe Illustrator 21.1.0, SVG Export Plug-In . SVG Version: 6.00 Build 0)  -->
<svg version="1.1" id="Layer_1" xmlns="http://www.w3.org/2000/svg" xmlns:xlink="http://www.w3.org/1999/xlink" x="0px" y="0px"
	 viewBox="0 0 569 973.8" style="enable-background:new 0 0 569 973.8;" xml:space="preserve">
<style type="text/css">
	.st0{fill:none;}
	.st1{font-family:'OldEnglishTextMT';}
	.st2{font-size:66px;}
</style>
<g>
	<path d="M103.8,386.7c-7-9-7-14-6-12c6,12,25,26,27,27l55,20l-6-18l-12-16c32,16-1,31,81,63c31,12,1-23,0-42c-1-13,25,52,25,52
		c4,5,48,19,46,23c-2,5-2,5-2,13c0,0-10-5-11-6c-21-6-72-41-88-40c-8,1-14,5-21,12l-14,12c6-12,19-25,20-32c1-6,3-8-22-15
		c-28-8-47,16-46,13c4-7,17-13,19-19c3-5-8-7-44-18c-80-25-48-17-22-10c14,4,34,12,35,8C117.8,400.7,107.8,393.7,103.8,386.7z"/>
	<path d="M380.8,515.7c-2-23,10-60,39-46c14,7,21,23,17,38c-4,14-25,25-37,31c-4,2-4,1-1-2c6-6,19-16,21-24c0-2-1-2-3-1
		c-7,6-14,15-22,20c-3,2-3,1-1-2c6-10,14-18,18-30c2-5,2-9,2-11c0-6-11,22-16,24c-3,1,0-12,0-14c0-1-1-1-1,0c-4,2-8,14-11,19
		C383.8,519.7,381.8,521.7,380.8,515.7z"/>
	<path d="M349.8,529.7c-22-8-51-34-27-55c12-10,30-9,42,0c11,9,13,33,13,47c0,4,0,4-2,0c-3-8-7-24-14-29c-1-1-2,0-1,2c2,9,7,19,9,28
		c1,4,0,4-2,1c-7-11-11-20-21-29c-4-4-7-6-9-6c-6-3,16,19,16,24c0,3-11-5-13-5c-1,0-1,0-1,1c1,4,10,12,13,17
		C354.8,528.7,355.8,531.7,349.8,529.7z"/>
	<path d="M350.8,565.7c-17,16-54,28-60-4c-3-15,6-30,20-35c14-6,36,4,48,11c3,2,3,2-2,2c-8-2-24-6-31-3c-2,1-1,2,1,3c9,3,20,2,29,6
		c3,1,3,2-1,2c-12,1-23-1-35,3c-5,2-9,4-10,5c-5,4,24-4,29-1c2,1-10,7-11,8s-1,1,0,1c4,2,16-2,22-2
		C352.8,561.7,355.8,562.7,350.8,565.7z"/>
	<path d="M385.8,569.7c15,18,26,55-6,60c-15,2-30-8-35-22c-5-13,6-35,13-47c2-3,2-3,1,2c-1,8-6,24-3,31c1,2,2,1,3-1c3-9,3-20,6-29
		c2-3,3-2,3,1c0,13-2,23,2,36c1,5,3,8,4,10c4,5-3-25,0-29c2-2,6,10,8,11c0,1,1,0,1,0c2-4-2-16-2-22
		C380.8,567.7,381.8,564.7,385.8,569.7z"/>
	<path d="M405.8,539.7c22-6,61,1,51,32c-5,15-21,23-35,22c-15-2-29-21-37-33c-2-3-1-4,2-1c7,5,19,17,27,17c2,0,2-1,0-2
		c-6-7-16-12-22-19c-3-3-2-4,1-2c12,5,20,11,33,14c5,1,9,1,11,0c6,0-23-8-26-12c-1-3,12-2,14-2c0-1,0-1,0-2c-3-3-15-5-20-8
		C401.8,542.7,399.8,540.7,405.8,539.7z"/>
	<circle cx="376.8" cy="543.7" r="13"/>
	<path d="M187.8,520.7c-9-21-10-60,22-57c15,2,27,15,28,30c1,14-15,32-24,42c-3,3-3,2-1-2c3-7,12-21,11-29c-1-2-2-2-3,0
		c-5,8-8,18-14,26c-2,3-3,2-2-1c3-12,7-22,7-35c0-5-1-9-2-11c-2-6-3,25-7,28c-2,2-4-11-5-13h-1c-2,4-2,16-4,22
		C192.8,523.7,190.8,525.7,187.8,520.7z"/>
	<path d="M163.8,543.7c-23,1-60-14-44-42c8-13,25-19,39-14s24,26,29,39c1,4,1,4-2,0c-6-6-15-19-23-22c-2,0-2,1-1,3c5,8,14,15,19,23
		c2,3,0,4-2,1c-11-7-17-15-30-20c-5-2-8-3-10-3c-7,0,21,13,23,18c0,3-12-1-14-1c-1,1-1,1-1,1c3,4,14,9,19,13
		C167.8,541.7,169.8,543.7,163.8,543.7z"/>
	<path d="M176.8,577.7c-11,20-42,44-58,17c-8-14-4-31,7-41c11-9,35-7,49-5c4,0,3,1-1,2c-8,1-25,3-30,8c-2,2-1,2,1,2c10,0,20-4,30-4
		c3,0,3,1,0,2c-12,6-22,8-32,16c-5,3-7,6-8,7c-4,6,21-12,27-11c2,1-7,10-8,12c0,1,0,1,1,1c4,0,14-8,19-10
		C176.8,572.7,179.8,572.7,176.8,577.7z"/>
	<path d="M210.8,569.7c20,11,43,43,15,58c-14,8-31,3-41-8c-9-12-6-35-3-49c1-4,1-3,2,1c1,8,2,24,7,31c2,1,2,0,2-2c0-9-3-20-3-29
		c0-4,1-4,2-1c5,12,7,22,14,33c4,5,6,7,8,8c5,4-12-22-10-27c1-2,9,7,11,8c1,0,1,0,1-1c0-4-7-14-9-20
		C205.8,568.7,205.8,566.7,210.8,569.7z"/>
	<path d="M218.8,533.7c20-12,58-18,59,14c1,15-11,29-25,32c-14,3-34-10-45-19c-4-2-3-2,1-1c8,3,23,9,31,7c2,0,1-1-1-3
		c-8-4-19-5-27-10c-4-1-3-2,1-2c12,1,22,4,35,2c5-1,9-2,11-3c5-3-25,0-29-3c-2-2,11-5,12-7c1,0,0-1,0-1c-4-2-16,0-22-1
		C216.8,538.7,213.8,537.7,218.8,533.7z"/>
	<ellipse transform="matrix(0.941 -0.3385 0.3385 0.941 -174.1895 97.995)" cx="193.9" cy="548.4" rx="12.8" ry="12.8"/>
	<path d="M476.8,375.7c-4-22,5-60,35-49c14,6,22,22,20,36c-3,14-23,28-35,35c-3,2-3,1,0-2c5-6,17-18,18-26c0-2-1-2-3,0
		c-7,6-12,15-20,21c-2,3-3,2-1-2c6-11,12-19,15-31c2-6,2-9,2-11c-1-7-10,23-15,25c-2,1,0-12-1-14c0-1-1-1-1,0c-4,3-6,15-9,20
		C479.8,380.7,477.8,381.7,476.8,375.7z"/>
	<path d="M446.8,392.7c-22-6-54-29-31-52c11-11,29-12,41-4s16,32,18,46c0,3,0,3-2-1c-4-7-10-23-17-27c-1-1-2,0-1,2c3,9,9,18,12,27
		c1,4,0,4-3,1c-7-10-12-19-23-27c-4-3-7-5-9-5c-6-2,17,17,17,23c0,2-11-4-13-5c0,0-1,1,0,1c1,5,11,12,14,17
		C451.8,390.7,452.8,393.7,446.8,392.7z"/>
	<path d="M450.8,428.7c-15,17-52,32-60,1c-4-15,4-31,17-37c13-7,36,1,49,7c3,2,3,2-2,2c-8-1-24-4-31,0c-2,1-1,2,1,3c9,2,20,1,29,3
		c4,1,3,2,0,2c-13,2-23,2-35,7c-5,2-8,4-10,5c-5,4,24-6,29-3c2,1-9,7-10,9c-1,0,0,1,0,1c5,1,16-4,22-5
		C452.8,423.7,454.8,424.7,450.8,428.7z"/>
	<path d="M485.8,428.7c17,17,31,54-1,61c-15,3-30-5-36-19c-6-13,3-35,9-48c1-3,2-3,1,2c-1,8-4,24,0,31c1,2,1,1,2-1c2-9,2-20,4-29
		c1-4,2-3,3,0c1,13,0,23,5,36c2,5,4,8,5,9c4,5-5-24-3-28c2-3,8,9,9,10s1,0,1,0c2-5-3-16-3-22C481.8,427.7,481.8,424.7,485.8,428.7z"
		/>
	<path d="M502.8,397.7c22-8,61-4,54,28c-4,15-18,25-33,24s-30-18-39-29c-2-3-2-4,2-1c7,4,20,14,28,14c2,0,2-1,0-2c-7-6-17-11-24-17
		c-3-3-2-3,1-2c12,4,21,10,34,11c5,1,9,0,11,0c6-2-24-6-27-11c-1-2,12-2,14-3v-1c-4-3-16-4-21-6
		C499.8,400.7,497.8,398.7,502.8,397.7z"/>
	
		<ellipse transform="matrix(0.9964 -8.474388e-02 8.474388e-02 0.9964 -32.5706 41.7106)" cx="475" cy="404.5" rx="12.8" ry="12.8"/>
	<path d="M398.8,635.7c22,14,40,11,68,15c-7-12-91-71-45-49c23,11,40,27,38,24c-5-7-12-16-20-31c-1-1,10-6,15-13l18,32
		c14,18,54,108,93,136c10,7-3,30-10,29c-11-2-29-27-49-56c-29-40-58-94-85-28c-13,32-7-10,2-25c8-16,17-14,17-14c-14-2-21,0-31-10
		L398.8,635.7z"/>
	<path d="M243.8,1.7c-9,35,30,127,25,148c-1,3,6,25,4,25c-1,0-39-39-40-37c-2,4,38,43,40,46l24,87l-60-23c1,4,3,7,5,10c1,1,1,2,1,3
		c-4,5-44-11-44-11c43,39,95-17,136,121c15,50-48-11-69-7c-32,5,82,46,82,46c8,7,32,83,34,77c2-7,3-11,10-18c4-4-21-53-22-58
		c-9-46-39-85,1-118c4-4,7-8,11-12c3-2,4-3,3-4c0-1-1-2-2-2c-10,2-48,78-70-19c-10-45,29-42,24-49c0-1-6,0-7-1c-5-4,13-12,11-13
		c0-1,0-1-1-1c-1-1-17,10-18,10c-16,1-15,69-42-48c-8-33,1-59-10-78c-1-2,4,12,3,20c-2,9-2,18-3,17c-4-9-17-72-20-78
		C245.8,27.7,246.8-8.3,243.8,1.7z"/>
	<path d="M155.8,361.7c0-51,66,5,66,9c0,2-2,5-2,15C219.8,386.7,154.8,390.7,155.8,361.7z"/>
	<path d="M226.8,362.7c0,0-46-23-20-43c15-12,22-1,26,13c0,2,4,22,4,23C234.8,356.7,229.8,362.7,226.8,362.7z"/>
	<path d="M247.8,298.7c25,7,5,48,4,48c-2,1-8,4-10,3C241.8,349.7,217.8,290.7,247.8,298.7z"/>
	<path d="M259.8,338.7c2-8,8-22,17-12c13,13-9,27-14,26C256.8,350.7,257.8,342.7,259.8,338.7z"/>
	<path d="M236.8,359.7c25-20,23,7,40,12c7,2,21,1,24,7c1,2,6,12,2,13c-1,0-23-13-32-14c-14-2-35,13-42,10
		C218.8,384.7,231.8,364.7,236.8,359.7z"/>
	<path d="M287.8,504.7c-8-1-15-1-20-3c-7-3-12-17-19-23c-4-4,10,20,9,24c-1,5-26,15-32,24c-1,1,27-13,32-15c20-6,47,11,64,11
		c3,0,3-4,2-5C318.8,513.7,293.8,505.7,287.8,504.7z"/>
	<path d="M452.8,251.7c0,0-35-4-56,7c-5,3-8,10-12,15c0,0,3,0,3,2C387.8,275.7,452.8,280.7,452.8,251.7z"/>
	<path d="M377.8,277.7c-4,3-7-6-8-8c-3-11-12-45,16-43c19,2,17,15,10,28c-1,2-12,19-12,19C381.8,274.7,380.8,275.7,377.8,277.7z"/>
	<path d="M394.8,292.7c6,6,17,16,21,3c5-16-22-20-28-19c-1,0,0,2-3,3C380.8,280.7,391.8,290.7,394.8,292.7z"/>
	<path d="M259.8,338.7c2-8,8-22,17-12c13,13-9,27-14,26C256.8,350.7,257.8,342.7,259.8,338.7z"/>
	<path d="M149.8,231.7c0,0,26-3,42,6c4,2,6,7,9,11c0,0-3,0-3,1C197.8,249.7,149.8,253.7,149.8,231.7z"/>
	<path d="M205.8,251.7c2,2,5-5,6-6c2-8,9-34-12-32c-14,1-13,11-8,20c1,2,9,14,9,15C202.8,248.7,203.8,249.7,205.8,251.7z"/>
	<path d="M192.8,262.7c-5,5-13,11-16,2c-3-12,16-15,21-14c1,0,0,1,3,2C202.8,253.7,194.8,260.7,192.8,262.7z"/>
	<path d="M452.8,251.7c0,0-35-4-56,7c-5,3-8,10-12,15c0,0,3,0,3,2C387.8,275.7,452.8,280.7,452.8,251.7z"/>
	<path d="M377.8,277.7c-4,3-7-6-8-8c-3-11-12-45,16-43c19,2,17,15,10,28c-1,2-12,19-12,19C381.8,274.7,380.8,275.7,377.8,277.7z"/>
	<path d="M394.8,292.7c6,6,17,16,21,3c5-16-22-20-28-19c-1,0,0,2-3,3C380.8,280.7,391.8,290.7,394.8,292.7z"/>
	<path d="M381.8,187.7c0,0-19-7-33-3c-3,1-6,4-8,7c-1,0,1,0,1,1C341.8,192.7,377.8,204.7,381.8,187.7z"/>
	<path d="M335.8,192.7c-2,1-3-5-3-6c-1-6-1-27,14-22c11,4,8,11,2,17c-1,1-9,9-9,9C338.8,190.7,337.8,191.7,335.8,192.7z"/>
	<path d="M343.8,203.7c2,4,7,11,11,4c5-8-9-14-13-14c0,0-1,1-2,1C336.8,194.7,342.8,201.7,343.8,203.7z"/>
	<path d="M195.8,120.7c0,0,20,0,31,7c3,2,5,7,7,10c0,0-2-1-2,1C231.8,138.7,192.8,137.7,195.8,120.7z"/>
	<path d="M236.8,140.7c2,1,5-4,5-5c3-6,10-25-6-25c-12,0-11,7-8,15c1,1,6,12,6,12C234.8,137.7,235.8,138.7,236.8,140.7z"/>
	<path d="M226.8,147.7c-4,3-11,8-13,0c-2-9,14-10,18-9c0,0,0,1,1,2C234.8,141.7,227.8,146.7,226.8,147.7z"/>
	<path d="M0.8,388.7c0,0,23-13,40-10c5,0,9,4,13,7c0,0-2,0-1,2C52.8,387.7,8.8,408.7,0.8,388.7z"/>
	<path d="M59.8,386.7c3,1,3-7,3-8c0-9-4-35-22-25c-13,6-8,14,0,21c1,1,13,10,14,10S56.8,385.7,59.8,386.7z"/>
	<path d="M51.8,401.7c-2,6-7,15-14,7c-7-9,10-19,15-20c0-1,0,1,3,1S52.8,398.7,51.8,401.7z"/>
	<path d="M94.8,334.7c0,0-8,18-5,31c1,3,4,6,6,9c0,0,0-2,2-2C97.8,372.7,109.8,338.7,94.8,334.7z"/>
	<path d="M96.8,378.7c1,2-4,3-5,3c-6,0-26-1-20-15c4-10,10-7,16-1c0,1,8,9,8,9C95.8,375.7,95.8,376.7,96.8,378.7z"/>
	<path d="M107.8,371.7c4-2,11-7,4-11c-7-5-13,9-14,12c0,1,1,1,1,3S105.8,372.7,107.8,371.7z"/>
	<path d="M111.8,475.7c0,0,1-20,8-30c2-3,6-4,9-6c0,0,0,2,1,2C129.8,441.7,127.8,477.7,111.8,475.7z"/>
	<path d="M131.8,436.7c2-2-3-5-4-5c-5-3-24-10-24,5c-1,11,7,11,14,8c1-1,11-5,11-6C129.8,437.7,130.8,437.7,131.8,436.7z"/>
	<path d="M138.8,446.7c3,4,7,10,0,12c-9,1-9-13-8-17c0,0,1,0,2-2C133.8,438.7,137.8,444.7,138.8,446.7z"/>
</g>
<rect x="-1.7" y="637" class="st0" width="422" height="51"/>
<text transform="matrix(1 0 0 1 -1.6992 682.3418)" class="st1 st2">Pangu Gaming</text>
</svg>
