<?xml version="1.0" encoding="utf-8"?>
<!-- Generator: Adobe Illustrator 21.1.0, SVG Export Plug-In . SVG Version: 6.00 Build 0)  -->
<svg version="1.1" id="Layer_1" xmlns="http://www.w3.org/2000/svg" xmlns:xlink="http://www.w3.org/1999/xlink" x="0px" y="0px"
	 viewBox="0 0 569 973.8" style="enable-background:new 0 0 569 973.8;" xml:space="preserve">
<g>
	<path d="M103,387c-7-9-7-14-6-12c6,12,25,26,27,27l55,20l-6-18l-12-16c32,16-1,31,81,63c31,12,1-23,0-42c-1-13,25,52,25,52
		c4,5,48,19,46,23c-2,5-2,5-2,13c0,0-10-5-11-6c-21-6-72-41-88-40c-8,1-14,5-21,12l-14,12c6-12,19-25,20-32c1-6,3-8-22-15
		c-28-8-47,16-46,13c4-7,17-13,19-19c3-5-8-7-44-18c-80-25-48-17-22-10c14,4,34,12,35,8C117,401,107,394,103,387z"/>
	<path d="M380,516c-2-23,10-60,39-46c14,7,21,23,17,38c-4,14-25,25-37,31c-4,2-4,1-1-2c6-6,19-16,21-24c0-2-1-2-3-1
		c-7,6-14,15-22,20c-3,2-3,1-1-2c6-10,14-18,18-30c2-5,2-9,2-11c0-6-11,22-16,24c-3,1,0-12,0-14c0-1-1-1-1,0c-4,2-8,14-11,19
		C383,520,381,522,380,516z"/>
	<path d="M349,530c-22-8-51-34-27-55c12-10,30-9,42,0c11,9,13,33,13,47c0,4,0,4-2,0c-3-8-7-24-14-29c-1-1-2,0-1,2c2,9,7,19,9,28
		c1,4,0,4-2,1c-7-11-11-20-21-29c-4-4-7-6-9-6c-6-3,16,19,16,24c0,3-11-5-13-5c-1,0-1,0-1,1c1,4,10,12,13,17
		C354,529,355,532,349,530z"/>
	<path d="M350,566c-17,16-54,28-60-4c-3-15,6-30,20-35c14-6,36,4,48,11c3,2,3,2-2,2c-8-2-24-6-31-3c-2,1-1,2,1,3c9,3,20,2,29,6
		c3,1,3,2-1,2c-12,1-23-1-35,3c-5,2-9,4-10,5c-5,4,24-4,29-1c2,1-10,7-11,8s-1,1,0,1c4,2,16-2,22-2C352,562,355,563,350,566z"/>
	<path d="M385,570c15,18,26,55-6,60c-15,2-30-8-35-22c-5-13,6-35,13-47c2-3,2-3,1,2c-1,8-6,24-3,31c1,2,2,1,3-1c3-9,3-20,6-29
		c2-3,3-2,3,1c0,13-2,23,2,36c1,5,3,8,4,10c4,5-3-25,0-29c2-2,6,10,8,11c0,1,1,0,1,0c2-4-2-16-2-22C380,568,381,565,385,570z"/>
	<path d="M405,540c22-6,61,1,51,32c-5,15-21,23-35,22c-15-2-29-21-37-33c-2-3-1-4,2-1c7,5,19,17,27,17c2,0,2-1,0-2c-6-7-16-12-22-19
		c-3-3-2-4,1-2c12,5,20,11,33,14c5,1,9,1,11,0c6,0-23-8-26-12c-1-3,12-2,14-2c0-1,0-1,0-2c-3-3-15-5-20-8C401,543,399,541,405,540z"
		/>
	<circle cx="376" cy="544" r="13"/>
	<path d="M187,521c-9-21-10-60,22-57c15,2,27,15,28,30c1,14-15,32-24,42c-3,3-3,2-1-2c3-7,12-21,11-29c-1-2-2-2-3,0c-5,8-8,18-14,26
		c-2,3-3,2-2-1c3-12,7-22,7-35c0-5-1-9-2-11c-2-6-3,25-7,28c-2,2-4-11-5-13h-1c-2,4-2,16-4,22C192,524,190,526,187,521z"/>
	<path d="M163,544c-23,1-60-14-44-42c8-13,25-19,39-14s24,26,29,39c1,4,1,4-2,0c-6-6-15-19-23-22c-2,0-2,1-1,3c5,8,14,15,19,23
		c2,3,0,4-2,1c-11-7-17-15-30-20c-5-2-8-3-10-3c-7,0,21,13,23,18c0,3-12-1-14-1c-1,1-1,1-1,1c3,4,14,9,19,13
		C167,542,169,544,163,544z"/>
	<path d="M176,578c-11,20-42,44-58,17c-8-14-4-31,7-41c11-9,35-7,49-5c4,0,3,1-1,2c-8,1-25,3-30,8c-2,2-1,2,1,2c10,0,20-4,30-4
		c3,0,3,1,0,2c-12,6-22,8-32,16c-5,3-7,6-8,7c-4,6,21-12,27-11c2,1-7,10-8,12c0,1,0,1,1,1c4,0,14-8,19-10C176,573,179,573,176,578z"
		/>
	<path d="M210,570c20,11,43,43,15,58c-14,8-31,3-41-8c-9-12-6-35-3-49c1-4,1-3,2,1c1,8,2,24,7,31c2,1,2,0,2-2c0-9-3-20-3-29
		c0-4,1-4,2-1c5,12,7,22,14,33c4,5,6,7,8,8c5,4-12-22-10-27c1-2,9,7,11,8c1,0,1,0,1-1c0-4-7-14-9-20C205,569,205,567,210,570z"/>
	<path d="M218,534c20-12,58-18,59,14c1,15-11,29-25,32s-34-10-45-19c-4-2-3-2,1-1c8,3,23,9,31,7c2,0,1-1-1-3c-8-4-19-5-27-10
		c-4-1-3-2,1-2c12,1,22,4,35,2c5-1,9-2,11-3c5-3-25,0-29-3c-2-2,11-5,12-7c1,0,0-1,0-1c-4-2-16,0-22-1C216,539,213,538,218,534z"/>
	<ellipse transform="matrix(0.941 -0.3385 0.3385 0.941 -174.3104 97.716)" cx="193" cy="548.7" rx="12.8" ry="12.8"/>
	<path d="M476,376c-4-22,5-60,35-49c14,6,22,22,20,36c-3,14-23,28-35,35c-3,2-3,1,0-2c5-6,17-18,18-26c0-2-1-2-3,0c-7,6-12,15-20,21
		c-2,3-3,2-1-2c6-11,12-19,15-31c2-6,2-9,2-11c-1-7-10,23-15,25c-2,1,0-12-1-14c0-1-1-1-1,0c-4,3-6,15-9,20C479,381,477,382,476,376
		z"/>
	<path d="M446,393c-22-6-54-29-31-52c11-11,29-12,41-4s16,32,18,46c0,3,0,3-2-1c-4-7-10-23-17-27c-1-1-2,0-1,2c3,9,9,18,12,27
		c1,4,0,4-3,1c-7-10-12-19-23-27c-4-3-7-5-9-5c-6-2,17,17,17,23c0,2-11-4-13-5c0,0-1,1,0,1c1,5,11,12,14,17C451,391,452,394,446,393
		z"/>
	<path d="M450,429c-15,17-52,32-60,1c-4-15,4-31,17-37c13-7,36,1,49,7c3,2,3,2-2,2c-8-1-24-4-31,0c-2,1-1,2,1,3c9,2,20,1,29,3
		c4,1,3,2,0,2c-13,2-23,2-35,7c-5,2-8,4-10,5c-5,4,24-6,29-3c2,1-9,7-10,9c-1,0,0,1,0,1c5,1,16-4,22-5C452,424,454,425,450,429z"/>
	<path d="M485,429c17,17,31,54-1,61c-15,3-30-5-36-19c-6-13,3-35,9-48c1-3,2-3,1,2c-1,8-4,24,0,31c1,2,1,1,2-1c2-9,2-20,4-29
		c1-4,2-3,3,0c1,13,0,23,5,36c2,5,4,8,5,9c4,5-5-24-3-28c2-3,8,9,9,10s1,0,1,0c2-5-3-16-3-22C481,428,481,425,485,429z"/>
	<path d="M502,398c22-8,61-4,54,28c-4,15-18,25-33,24s-30-18-39-29c-2-3-2-4,2-1c7,4,20,14,28,14c2,0,2-1,0-2c-7-6-17-11-24-17
		c-3-3-2-3,1-2c12,4,21,10,34,11c5,1,9,0,11,0c6-2-24-6-27-11c-1-2,12-2,14-3v-1c-4-3-16-4-21-6C499,401,497,399,502,398z"/>
	
		<ellipse transform="matrix(0.9964 -8.474364e-02 8.474364e-02 0.9964 -32.6013 41.6431)" cx="474.2" cy="404.8" rx="12.8" ry="12.8"/>
	<path d="M398,636c22,14,40,11,68,15c-7-12-91-71-45-49c23,11,40,27,38,24c-5-7-12-16-20-31c-1-1,10-6,15-13l18,32
		c14,18,54,108,93,136c10,7-3,30-10,29c-11-2-29-27-49-56c-29-40-58-94-85-28c-13,32-7-10,2-25c8-16,17-14,17-14c-14-2-21,0-31-10
		L398,636z"/>
	<path d="M243,2c-9,35,30,127,25,148c-1,3,6,25,4,25c-1,0-39-39-40-37c-2,4,38,43,40,46l24,87l-60-23c1,4,3,7,5,10c1,1,1,2,1,3
		c-4,5-44-11-44-11c43,39,95-17,136,121c15,50-48-11-69-7c-32,5,82,46,82,46c8,7,32,83,34,77c2-7,3-11,10-18c4-4-21-53-22-58
		c-9-46-39-85,1-118c4-4,7-8,11-12c3-2,4-3,3-4c0-1-1-2-2-2c-10,2-48,78-70-19c-10-45,29-42,24-49c0-1-6,0-7-1c-5-4,13-12,11-13
		c0-1,0-1-1-1c-1-1-17,10-18,10c-16,1-15,69-42-48c-8-33,1-59-10-78c-1-2,4,12,3,20c-2,9-2,18-3,17c-4-9-17-72-20-78
		C245,28,246-8,243,2z"/>
	<path d="M155,362c0-51,66,5,66,9c0,2-2,5-2,15C219,387,154,391,155,362z"/>
	<path d="M226,363c0,0-46-23-20-43c15-12,22-1,26,13c0,2,4,22,4,23C234,357,229,363,226,363z"/>
	<path d="M247,299c25,7,5,48,4,48c-2,1-8,4-10,3C241,350,217,291,247,299z"/>
	<path d="M259,339c2-8,8-22,17-12c13,13-9,27-14,26C256,351,257,343,259,339z"/>
	<path d="M236,360c25-20,23,7,40,12c7,2,21,1,24,7c1,2,6,12,2,13c-1,0-23-13-32-14c-14-2-35,13-42,10C218,385,231,365,236,360z"/>
	<path d="M287,505c-8-1-15-1-20-3c-7-3-12-17-19-23c-4-4,10,20,9,24c-1,5-26,15-32,24c-1,1,27-13,32-15c20-6,47,11,64,11
		c3,0,3-4,2-5C318,514,293,506,287,505z"/>
	<path d="M452,252c0,0-35-4-56,7c-5,3-8,10-12,15c0,0,3,0,3,2C387,276,452,281,452,252z"/>
	<path d="M377,278c-4,3-7-6-8-8c-3-11-12-45,16-43c19,2,17,15,10,28c-1,2-12,19-12,19C381,275,380,276,377,278z"/>
	<path d="M394,293c6,6,17,16,21,3c5-16-22-20-28-19c-1,0,0,2-3,3C380,281,391,291,394,293z"/>
	<path d="M259,339c2-8,8-22,17-12c13,13-9,27-14,26C256,351,257,343,259,339z"/>
	<path d="M149,232c0,0,26-3,42,6c4,2,6,7,9,11c0,0-3,0-3,1C197,250,149,254,149,232z"/>
	<path d="M205,252c2,2,5-5,6-6c2-8,9-34-12-32c-14,1-13,11-8,20c1,2,9,14,9,15C202,249,203,250,205,252z"/>
	<path d="M192,263c-5,5-13,11-16,2c-3-12,16-15,21-14c1,0,0,1,3,2C202,254,194,261,192,263z"/>
	<path d="M452,252c0,0-35-4-56,7c-5,3-8,10-12,15c0,0,3,0,3,2C387,276,452,281,452,252z"/>
	<path d="M377,278c-4,3-7-6-8-8c-3-11-12-45,16-43c19,2,17,15,10,28c-1,2-12,19-12,19C381,275,380,276,377,278z"/>
	<path d="M394,293c6,6,17,16,21,3c5-16-22-20-28-19c-1,0,0,2-3,3C380,281,391,291,394,293z"/>
	<path d="M381,188c0,0-19-7-33-3c-3,1-6,4-8,7c-1,0,1,0,1,1C341,193,377,205,381,188z"/>
	<path d="M335,193c-2,1-3-5-3-6c-1-6-1-27,14-22c11,4,8,11,2,17c-1,1-9,9-9,9C338,191,337,192,335,193z"/>
	<path d="M343,204c2,4,7,11,11,4c5-8-9-14-13-14c0,0-1,1-2,1C336,195,342,202,343,204z"/>
	<path d="M195,121c0,0,20,0,31,7c3,2,5,7,7,10c0,0-2-1-2,1C231,139,192,138,195,121z"/>
	<path d="M236,141c2,1,5-4,5-5c3-6,10-25-6-25c-12,0-11,7-8,15c1,1,6,12,6,12C234,138,235,139,236,141z"/>
	<path d="M226,148c-4,3-11,8-13,0c-2-9,14-10,18-9c0,0,0,1,1,2C234,142,227,147,226,148z"/>
	<path d="M0,389c0,0,23-13,40-10c5,0,9,4,13,7c0,0-2,0-1,2C52,388,8,409,0,389z"/>
	<path d="M59,387c3,1,3-7,3-8c0-9-4-35-22-25c-13,6-8,14,0,21c1,1,13,10,14,10S56,386,59,387z"/>
	<path d="M51,402c-2,6-7,15-14,7c-7-9,10-19,15-20c0-1,0,1,3,1S52,399,51,402z"/>
	<path d="M94,335c0,0-8,18-5,31c1,3,4,6,6,9c0,0,0-2,2-2C97,373,109,339,94,335z"/>
	<path d="M96,379c1,2-4,3-5,3c-6,0-26-1-20-15c4-10,10-7,16-1c0,1,8,9,8,9C95,376,95,377,96,379z"/>
	<path d="M107,372c4-2,11-7,4-11c-7-5-13,9-14,12c0,1,1,1,1,3S105,373,107,372z"/>
	<path d="M111,476c0,0,1-20,8-30c2-3,6-4,9-6c0,0,0,2,1,2C129,442,127,478,111,476z"/>
	<path d="M131,437c2-2-3-5-4-5c-5-3-24-10-24,5c-1,11,7,11,14,8c1-1,11-5,11-6C129,438,130,438,131,437z"/>
	<path d="M138,447c3,4,7,10,0,12c-9,1-9-13-8-17c0,0,1,0,2-2C133,439,137,445,138,447z"/>
</g>
</svg>
